<svg xmlns="http://www.w3.org/2000/svg"><symbol id="error" viewBox="0 0 400 400"><path fill="#ee4750" d="M282.8-.7H117.1L0 116.5v165.7l117.1 117.1h165.7L400 282.2V116.5zM200 320.2a20.9 20.9 0 1 1 20.8-20.9 20.9 20.9 0 0 1-20.8 20.9zm9.2-79.2a9.2 9.2 0 0 1-18.4 0l-13.3-133.5a22.6 22.6 0 1 1 45 .1z"/></symbol><symbol id="facebook" viewBox="0 0 400 400"><path fill="#010101" d="M317.8 0H85.1A83.9 83.9 0 0 0 1.5 83.9V316a84.1 84.1 0 0 0 84 84h128.2V245.1h-52.2v-60.4h52.2v-44.5c0-51.7 31.5-79.8 77.6-79.8 22.1 0 41.1 1.6 46.6 2.4v54h-32c-25 0-29.9 11.9-29.9 29.4v38.5h59.8l-7.8 60.4h-52V400h41.5a84 84 0 0 0 82.5-68.4V68.3A83.9 83.9 0 0 0 317.8 0z"/></symbol><symbol id="customization" viewBox="0 0 400 400"><path fill="#010101" d="M365.3 33.3v333.4H31.9V33.3zM398.6 0H-1.5v400h400.1zm-66.7 116.6H198.6v16.7h133.3zm0 83.4H198.6v16.7h133.3zm0 83.4H198.6V300h133.3zM156.6 94.9l-11.8-11.6-42.6 43.5-25.6-24.2-11.7 11.8 37.5 35.6zm0 83.4l-11.8-11.6-42.6 43.4-25.6-24.2-11.7 11.8 37.5 35.6zm0 83.3L144.8 250l-42.6 43.5-25.6-24.2-11.7 11.8 37.5 35.6z"/></symbol><symbol id="how-it-works" viewBox="0 0 400 400"><path fill="#010101" d="M200 0C89.6 0 0 89.6 0 200s89.6 200 200 200 200-89.6 200-200S310.4 0 200 0zm16.7 267.6v-50.9h49.9a316.5 316.5 0 0 1-7.6 54.6 415.6 415.6 0 0 0-42.3-3.7zm32.6 36c-8.3 22.2-19.3 41.7-32.6 57.6v-60.3c11.1.5 22 1.4 32.6 2.7zm-32.6-120.3v-50.2a390.6 390.6 0 0 0 42.4-3.8 310.9 310.9 0 0 1 7.5 54zm0-83.5v-61c13.4 16.1 24.5 35.8 32.8 58.2-10.7 1.4-21.7 2.3-32.8 2.8zm45-54.5a169.3 169.3 0 0 1 54.9 35.8 307.9 307.9 0 0 1-33.7 10.1 253.7 253.7 0 0 0-21.2-45.9zM141 271.3a316.5 316.5 0 0 1-7.6-54.6h49.9v50.9a415.6 415.6 0 0 0-42.3 3.7zm42.3 29.6v60.3c-13.3-15.9-24.3-35.4-32.6-57.6 10.6-1.3 21.5-2.2 32.6-2.7zm-49.9-117.6a310.9 310.9 0 0 1 7.5-54 390.6 390.6 0 0 0 42.4 3.8v50.2zM150.5 97c8.3-22.4 19.4-42.1 32.8-58.2v61c-11.1-.5-22.1-1.4-32.8-2.8zm-33.4-5.8a293.5 293.5 0 0 1-33.6-10.1 167.8 167.8 0 0 1 54.8-35.8 253.7 253.7 0 0 0-21.2 45.9zm-9.2 31.9a343.8 343.8 0 0 0-8.2 60.2H34.2A165.2 165.2 0 0 1 61.1 108a316.3 316.3 0 0 0 46.8 15.1zm.2 154.4a334.5 334.5 0 0 0-46.6 15 165 165 0 0 1-27.3-75.8h65.6a331.2 331.2 0 0 0 8.3 60.8zm9.2 32a256.4 256.4 0 0 0 21 45.2A166.9 166.9 0 0 1 84 319.4a294.3 294.3 0 0 1 33.3-9.9zm165.4 0a294.3 294.3 0 0 1 33.3 9.9 166.9 166.9 0 0 1-54.3 35.3 256.4 256.4 0 0 0 21-45.2zm9.2-32a340 340 0 0 0 8.4-60.8h65.5a165 165 0 0 1-27.3 75.8 334.5 334.5 0 0 0-46.6-15zm8.4-94.2a351 351 0 0 0-8.2-60.1 316.5 316.5 0 0 0 46.8-15.2 165.7 165.7 0 0 1 26.9 75.3z"/></symbol><symbol id="instagram" viewBox="0 0 400 400"><path fill="#010101" d="M253.9 91.4c-14.1-.6-18.3-.7-53.9-.7s-39.8.1-53.9.7c-36.1 1.7-53 18.8-54.6 54.7-.7 14-.8 18.3-.8 53.9s.1 39.8.8 53.8c1.6 35.8 18.4 53 54.6 54.7 14.1.6 18.3.8 53.9.8s39.8-.2 53.9-.8c36.1-1.6 53-18.8 54.6-54.6.7-14.1.8-18.3.8-53.9s-.1-39.8-.8-53.9c-1.6-35.9-18.5-53-54.6-54.7zm-53.9 177a68.5 68.5 0 1 1 68.5-68.4 68.5 68.5 0 0 1-68.5 68.4zm71.2-123.6a16 16 0 1 1 16-16 16 16 0 0 1-16 16zM244.4 200a44.4 44.4 0 1 1-44.4-44.5 44.4 44.4 0 0 1 44.4 44.5zM316.7 0H83.3A83.3 83.3 0 0 0 0 83.3v233.3A83.4 83.4 0 0 0 83.3 400h233.4a83.4 83.4 0 0 0 83.3-83.4V83.3A83.3 83.3 0 0 0 316.7 0zm15.8 254.9c-2.2 48.5-29.2 75.4-77.5 77.6-14.3.6-18.8.8-55 .8s-40.7-.2-55-.8c-48.4-2.2-75.3-29.1-77.5-77.6-.7-14.2-.8-18.7-.8-54.9s.1-40.8.8-55c2.2-48.5 29.1-75.4 77.5-77.6 14.3-.6 18.8-.8 55-.8s40.7.2 55 .8c48.4 2.2 75.4 29.2 77.5 77.6.7 14.2.8 18.8.8 55s-.1 40.7-.8 54.9z"/></symbol><symbol id="hamburger" viewBox="0 0 400 400"><path fill="#010101" d="M400 100H0V33.3h400zm0 66.6H0v66.7h400zm0 133.4H0v66.6h400z"/></symbol><symbol id="search" viewBox="0 0 400 400"><path fill="#010101" d="M398.5 348L292.6 242.1a157.3 157.3 0 0 0 24.5-84.4C317.1 70.8 246.3 0 159.3 0S1.5 70.8 1.5 157.8s70.8 157.8 157.8 157.8a156.7 156.7 0 0 0 80.6-22.2L346.5 400zM60.3 157.8a99 99 0 0 1 198 0c0 54.5-44.5 98.9-99 98.9a99.1 99.1 0 0 1-99-98.9z"/></symbol><symbol id="pinterest" viewBox="0 0 400 400"><path fill="#010101" d="M316.7 0H83.3A83.3 83.3 0 0 0 0 83.3v233.3A83.4 83.4 0 0 0 83.3 400h233.4a83.4 83.4 0 0 0 83.3-83.4V83.3A83.3 83.3 0 0 0 316.7 0zM200 333.3a132.6 132.6 0 0 1-39.5-6c5.5-8.8 13.6-23.3 16.6-34.9l8.3-31.7c4.4 8.3 17.1 15.3 30.6 15.3 40.2 0 69.2-37 69.2-82.9 0-44.1-36-77-82.3-77-57.5 0-88.1 38.6-88.1 80.6 0 19.6 10.5 43.9 27.1 51.7 2.5 1.2 3.9.7 4.5-1.8l3.7-15.1a4 4 0 0 0-1-3.8c-5.5-6.7-9.9-19-9.9-30.4 0-29.5 22.3-57.9 60.2-57.9 32.8 0 55.7 22.3 55.7 54.2 0 36.1-18.2 61.1-41.9 61.1-13.1 0-22.9-10.8-19.8-24.1 3.8-15.9 11.1-33 11.1-44.4s-5.5-18.8-16.9-18.8c-13.4 0-24.1 13.9-24.1 32.4a48.1 48.1 0 0 0 4 19.8s-13.3 55.9-15.7 66.3-1.6 27.7-.4 38.2a133.2 133.2 0 1 1 48.6 9.2z"/></symbol><symbol id="twitter" viewBox="0 0 400 400"><path fill="#010101" d="M316.7 0H83.3A83.3 83.3 0 0 0 0 83.3v233.3A83.4 83.4 0 0 0 83.3 400h233.4a83.4 83.4 0 0 0 83.3-83.4V83.3A83.3 83.3 0 0 0 316.7 0zm-2.4 153.9c3.5 77-53.9 162.8-155.4 162.8A155.1 155.1 0 0 1 75 292.1a110.3 110.3 0 0 0 81-22.7 54.5 54.5 0 0 1-51.1-38 53.9 53.9 0 0 0 24.7-.9c-26.3-5.3-44.5-29-43.9-54.3a54.7 54.7 0 0 0 24.8 6.8 54.7 54.7 0 0 1-17-73 155.4 155.4 0 0 0 112.8 57.1 54.8 54.8 0 0 1 93.2-49.9 110 110 0 0 0 34.8-13.2 54.5 54.5 0 0 1-24.1 30.2 107.2 107.2 0 0 0 31.5-8.6 110 110 0 0 1-27.4 28.3z"/></symbol><symbol id="cart-full" viewBox="0 0 400 400"><g fill="#010101"><circle cx="151.1" cy="332.6" r="24.1"/><circle cx="231.4" cy="332.6" r="24.1"/><path d="M332.6 67.7l-55.1 192.7H110.1l-16.3-39A88.1 88.1 0 0 0 174 148h101.5l9.1-32.1h-111a90.8 90.8 0 0 1 1.6 14 88.2 88.2 0 1 0-118.4 86.5l32 76.1h212.5l55.8-192.7h31L400 67.7zM54.4 173.4l10.8-10.5c26.1-24.8 37.9-38.1 38.1-53.5 0-10.3-5.1-19.9-20.3-19.9-9.3 0-17 4.7-21.7 8.6l-4.4-9.7A44.7 44.7 0 0 1 85.8 78c22 0 31.3 15.1 31.3 29.7 0 18.9-13.7 34.1-35.2 54.9l-8.2 7.5v.3h45.9v11.5H54.4z"/></g></symbol><symbol id="user" viewBox="0 0 400 400"><path fill="#010101" fill-rule="evenodd" d="M200 396.3C91.7 396.3 3.7 308.2 3.7 200S91.7 3.6 200 3.6 396.3 91.7 396.3 200s-88 196.3-196.3 196.3zM72 319.5a175.1 175.1 0 0 0 256 0c-4.3-5-11.5-8.4-23.5-11.1-63-14.9-67.5-24.9-71.9-34.5v-.2c-4.6-9.9-3.4-21.4 3.3-34.1 27.5-51.8 33.4-95.7 16.7-123.4-10.5-17.3-29.2-26.8-52.6-26.8s-42.5 9.7-52.9 27.2c-16.8 28.1-10.7 71.8 17 122.9 6.9 12.7 8.1 24.1 3.6 34.1s-9.1 20-72.2 34.8c-12 2.7-19.2 6.1-23.5 11.1zM200 68.2c30.7 0 56.5 13.5 70.6 37.1 20.7 34.3 15 85.5-16.1 144.2-3.5 6.7-4.5 11.8-2.8 15.4 4.6 10.1 27.7 16 57.5 22.8 14.3 3.3 24.9 8.4 32.3 15.5A173.4 173.4 0 0 0 375.2 200c0-96.6-78.6-175.2-175.2-175.2S24.8 103.4 24.8 200a172.9 172.9 0 0 0 33.7 103.1c7.3-7 17.9-12.1 32.2-15.4 28.9-6.6 53.2-12.8 57.7-22.8 1.7-3.7.7-8.7-2.9-15.4-31.4-57.9-37.3-108.9-16.6-143.7C143.1 81.9 169 68.2 200 68.2z"/><path fill="#231f20" d="M200 6.1C307 6.1 393.8 93 393.8 200S307 393.8 200 393.8 6.2 306.9 6.2 200 93 6.1 200 6.1M58.2 307c6.6-7.3 17-13.1 33.1-16.8 32.7-7.5 54.5-13.5 59.4-24.3 2-4.4 1-10.1-3-17.6-31-57.1-36.9-107.2-16.7-141.2 13.8-23.1 38.9-36.4 69-36.4s54.8 13.1 68.5 35.9c20.2 33.5 14.5 83.9-16.2 141.7-3.9 7.5-4.9 13.2-2.9 17.7 5 10.7 26.6 16.7 59.3 24.2 16.1 3.7 26.5 9.5 33.1 16.8a177.1 177.1 0 0 0 35.9-107c0-98.1-79.6-177.7-177.7-177.7S22.3 101.9 22.3 200a177.1 177.1 0 0 0 35.9 107M200 377.6a177 177 0 0 0 131.3-58c-4.6-6.4-12.5-10.5-26.3-13.7-62.1-14.6-66.1-24.2-70.3-33.2s-3-19.9 3.4-32c27.8-52.6 33.7-97.3 16.5-125.8-10.8-18.1-30.2-28-54.6-28s-44.1 10.1-55.1 28.5c-17.2 28.9-11.2 73.4 17 125.3 6.5 11.9 7.7 22.7 3.5 31.8s-9.8 19.3-70.5 33.4c-13.7 3.2-21.6 7.3-26.2 13.7a177 177 0 0 0 131.3 58m0-376.5A198.7 198.7 0 0 0 1.2 200a198.1 198.1 0 0 0 58.2 140.5 198.9 198.9 0 0 0 323.8-63.2 199.6 199.6 0 0 0 0-154.7A199 199 0 0 0 200 1.1zM58.9 299.4A170.5 170.5 0 0 1 27.3 200c0-95.3 77.5-172.7 172.7-172.7S372.7 104.7 372.7 200a170.5 170.5 0 0 1-31.6 99.4c-7.6-6.4-17.9-11-31.3-14.1-27.1-6.2-51.7-12.5-55.8-21.4-1.3-2.9-.4-7.3 2.8-13.3 31.4-59.4 37.1-111.5 16-146.6-14.7-24.3-41.2-38.3-72.8-38.3s-58.6 14.2-73.3 38.8c-21.1 35.6-15.2 87.5 16.6 146.2 3.2 5.9 4.1 10.3 2.9 13.2-4.1 8.9-28.8 15.2-56 21.4-13.5 3.1-23.8 7.7-31.3 14.1zm16.6 20.1c4.1-3.7 10.5-6.4 20.5-8.7 59.8-14 68.4-23.8 74-36.2 4.8-10.7 3.6-22.9-3.7-36.3C139 188 133 145.2 149.2 117.9c10-16.8 28.1-26 50.8-26s40.4 9.1 50.4 25.6c16.2 27 10.3 69.9-16.8 120.9-7.1 13.5-8.3 25.7-3.4 36.3v.2c2.1 4.7 4.8 10.6 15.5 16.7s29.6 12.5 58.1 19.2c10.1 2.3 16.5 5 20.6 8.7a172.4 172.4 0 0 1-249 0z"/></symbol><symbol id="cart" viewBox="0 0 400 400"><path fill="#010101" d="M400 55.5l-11.9 32.1h-31l-55.8 192.6H88.8L14.7 103.6h269.9l-9.1 32.1H63l47.1 112.4h167.4l55.1-192.6zM151.1 296.3a24.1 24.1 0 1 0 24.1 24.1 24.1 24.1 0 0 0-24.1-24.1zm80.3 0a24.1 24.1 0 1 0 24.1 24.1 24.1 24.1 0 0 0-24.1-24.1"/></symbol><symbol id="close" viewBox="0 0 400 400"><path fill="#010101" d="M400 336.4L261.4 199.6l136.7-138L336.5 0 199.6 138.6 61.1 1.9 0 63l138.7 137.3L1.9 338.9 63 400l137.3-138.7L338.4 398z"/></symbol></svg>
