<svg xmlns="http://www.w3.org/2000/svg"><symbol id="cart" viewBox="0 0 400 400"><defs><style>.cls-1{fill:#010101}</style></defs><path d="M400 55.46l-11.93 32.11h-31l-55.74 192.66H88.78l-74.1-176.6H284.6l-9.06 32.11H63l47.16 112.38h167.39l55.1-192.66zM151.15 296.28a24.09 24.09 0 1 0 24.08 24.09 24.09 24.09 0 0 0-24.08-24.09zm80.27 0a24.09 24.09 0 1 0 24.09 24.09 24.09 24.09 0 0 0-24.09-24.09" class="cls-1"/></symbol><symbol id="search" viewBox="0 0 400 400"><defs><style>.cls-1{fill:#010101}</style></defs><path d="M398.52 348L292.63 242.05a156.75 156.75 0 0 0 24.45-84.31C317.1 70.75 246.3 0 159.28 0S1.48 70.75 1.48 157.75s70.79 157.82 157.8 157.82a156.83 156.83 0 0 0 80.65-22.22L346.53 400zM60.28 157.75a99 99 0 1 1 99 99 99.11 99.11 0 0 1-99-99z" class="cls-1"/></symbol><symbol id="hamburger" viewBox="0 0 400 400"><defs><style>.cls-1{fill:#010101}</style></defs><path d="M400 100H0V33.29h400zm0 66.67H0v66.67h400zM400 300H0v66.67h400z" class="cls-1"/></symbol><symbol id="facebook" viewBox="0 0 400 400"><defs><style>.cls-1{fill:#010101}</style></defs><path d="M317.49 200zm.33-200H85.15A84 84 0 0 0 1.48 84v232a84 84 0 0 0 84 84h128.19V245.06h-52.14v-60.37h52.14v-44.51c0-51.67 31.55-79.8 77.65-79.8a428.75 428.75 0 0 1 46.58 2.38v54h-32c-25.06 0-29.91 11.91-29.91 29.38v38.55h59.81l-7.8 60.39h-52V400h41.47A84 84 0 0 0 400 331.63V68.27A84 84 0 0 0 317.82 0z" class="cls-1"/></symbol><symbol id="instagram" viewBox="0 0 400 400"><defs><style>.cls-1{fill:#010101}</style></defs><path d="M253.88 91.42c-14-.63-18.28-.77-53.88-.77s-39.82.14-53.87.77c-36.16 1.65-53 18.78-54.65 54.65-.65 14.07-.8 18.28-.8 53.88s.15 39.82.79 53.89c1.65 35.8 18.43 53 54.65 54.65 14 .63 18.28.78 53.88.78s39.83-.13 53.88-.77c36.17-1.65 53-18.81 54.65-54.65.64-14.06.77-18.28.77-53.88s-.13-39.82-.77-53.87c-1.65-35.88-18.53-53.03-54.65-54.68zm-53.88 177A68.47 68.47 0 1 1 268.47 200 68.46 68.46 0 0 1 200 268.42zm71.18-123.63a16 16 0 1 1 16-16 16 16 0 0 1-16 16zM244.45 200A44.45 44.45 0 1 1 200 155.5a44.45 44.45 0 0 1 44.45 44.5zM316.67 0H83.33A83.35 83.35 0 0 0 0 83.29v233.33A83.34 83.34 0 0 0 83.33 400h233.34A83.33 83.33 0 0 0 400 316.62V83.29A83.33 83.33 0 0 0 316.67 0zm15.86 255c-2.2 48.48-29.18 75.35-77.55 77.57-14.23.65-18.76.8-55 .8s-40.73-.15-55-.8c-48.46-2.22-75.33-29.14-77.56-77.57-.65-14.22-.8-18.75-.8-55s.15-40.75.8-55C69.7 96.52 96.6 69.64 145 67.44c14.24-.67 18.75-.82 55-.82s40.75.15 55 .8c48.47 2.22 75.39 29.18 77.55 77.55.65 14.23.8 18.78.8 55s-.17 40.73-.82 54.95z" class="cls-1"/></symbol><symbol id="pinterest" viewBox="0 0 400 400"><defs><style>.cls-1{fill:#010101}</style></defs><path d="M316.67 0H83.33A83.35 83.35 0 0 0 0 83.29v233.33A83.34 83.34 0 0 0 83.33 400h233.34A83.33 83.33 0 0 0 400 316.62V83.29A83.33 83.33 0 0 0 316.67 0zM200 333.29a133.36 133.36 0 0 1-39.48-6c5.43-8.85 13.55-23.37 16.56-35l8.32-31.68c4.35 8.3 17 15.3 30.55 15.3 40.23 0 69.2-37 69.2-82.94 0-44.05-35.95-77-82.22-77-57.53 0-88.1 38.62-88.1 80.69 0 19.56 10.42 43.9 27.07 51.66 2.52 1.17 3.87.65 4.47-1.78l3.7-15.12a4 4 0 0 0-.94-3.83c-5.51-6.67-9.91-19-9.91-30.42 0-29.41 22.26-57.86 60.2-57.86 32.75 0 55.68 22.31 55.68 54.25 0 36.06-18.22 61.05-41.92 61.05-13.1 0-22.9-10.82-19.75-24.1 3.77-15.85 11-33 11-44.4 0-10.24-5.5-18.79-16.86-18.79-13.39 0-24.14 13.85-24.14 32.39a48.15 48.15 0 0 0 4 19.8s-13.22 55.88-15.64 66.28c-2.68 11.52-1.63 27.7-.46 38.23a133.32 133.32 0 1 1 48.67 9.27z" class="cls-1"/></symbol><symbol id="user" viewBox="0 0 400 400"><defs><style>.cls-1{fill:#010101;fill-rule:evenodd}.cls-2{fill:#231f20}</style></defs><path d="M200 396.29C91.74 396.29 3.67 308.21 3.67 200S91.74 3.62 200 3.62 396.33 91.7 396.33 200 308.26 396.29 200 396.29zM72 319.48a175.07 175.07 0 0 0 256 0c-4.33-5-11.53-8.4-23.52-11.16-63-14.82-67.51-24.81-71.93-34.47l-.08-.18c-4.52-9.87-3.39-21.36 3.38-34.15 27.45-51.79 33.36-95.61 16.65-123.37-10.41-17.25-29.05-26.76-52.5-26.76-23.66 0-42.45 9.68-52.92 27.25-16.74 28.11-10.71 71.73 17 122.83 6.88 12.7 8.1 24.18 3.63 34.1-4.25 9.4-9.06 20-72.21 34.78-11.99 2.76-19.2 6.14-23.5 11.13zM200 68.23c30.71 0 56.46 13.5 70.63 37 20.68 34.37 15 85.57-16.09 144.18-3.57 6.76-4.5 11.81-2.82 15.46 4.58 10 27.73 16 57.51 22.82 14.29 3.29 24.89 8.35 32.29 15.44A173.56 173.56 0 0 0 375.18 200c0-96.6-78.59-175.18-175.18-175.18S24.82 103.36 24.82 200a173.44 173.44 0 0 0 33.65 103.14c7.38-7.05 18-12.1 32.28-15.41 28.88-6.59 53.16-12.86 57.69-22.86 1.63-3.63.67-8.65-3-15.33-31.39-57.9-37.28-108.94-16.58-143.72 14.27-23.89 40.19-37.59 71.14-37.59z" class="cls-1"/><path d="M200 6.12C307 6.12 393.83 93 393.83 200S307 393.79 200 393.79 6.17 306.93 6.17 200 93 6.12 200 6.12M58.21 307c6.61-7.3 16.95-13.08 33.1-16.81 32.71-7.47 54.53-13.51 59.41-24.26 2-4.4 1-10.15-3-17.56-31-57.1-36.86-107.27-16.64-141.26 13.78-23.11 38.9-36.36 69-36.36 29.8 0 54.77 13.06 68.49 35.83 20.2 33.58 14.47 83.91-16.16 141.72-4 7.48-4.91 13.26-2.89 17.67 4.93 10.79 26.56 16.77 59.23 24.22 16.16 3.71 26.49 9.53 33.1 16.84A176.86 176.86 0 0 0 377.68 200c0-98.06-79.62-177.67-177.68-177.67S22.32 101.89 22.32 200a176.75 176.75 0 0 0 35.89 107M200 377.63a177.26 177.26 0 0 0 131.27-58c-4.55-6.48-12.47-10.57-26.23-13.73-62.15-14.64-66.18-24.25-70.3-33.26s-3.06-19.87 3.32-31.94c27.87-52.6 33.75-97.3 16.58-125.82-10.88-18.08-30.28-28-54.64-28-24.57 0-44.13 10.11-55.06 28.47-17.22 28.9-11.2 73.4 16.94 125.3 6.49 12 7.69 22.71 3.55 31.88-4.28 9.47-9.87 19.23-70.5 33.38-13.76 3.16-21.68 7.25-26.22 13.69a177.19 177.19 0 0 0 131.29 58m0-376.48a198.89 198.89 0 0 0-77.37 382A198.86 198.86 0 0 0 277.37 16.76 197.55 197.55 0 0 0 200 1.12zM58.87 299.42A170.91 170.91 0 0 1 27.32 200c0-95.21 77.46-172.67 172.68-172.67S372.68 104.74 372.68 200a171.07 171.07 0 0 1-31.56 99.49c-7.58-6.4-17.89-11.06-31.32-14.15-27.08-6.17-51.71-12.44-55.81-21.41-1.31-2.86-.38-7.32 2.76-13.26 31.48-59.41 37.17-111.49 16-146.64-14.62-24.36-41.14-38.3-72.75-38.3-31.85 0-58.55 14.15-73.25 38.8-21.17 35.58-15.3 87.5 16.54 146.2 3.18 5.87 4.14 10.28 2.87 13.13-4 8.92-28.78 15.23-56 21.43-13.42 3.11-23.73 7.71-31.29 14.13zm16.59 20.09c4.09-3.71 10.55-6.41 20.59-8.72C155.8 296.85 164.39 287 170 274.6c4.81-10.67 3.56-22.89-3.71-36.32C139 188 133 145.24 149.23 117.92c10-16.79 28-26 50.77-26 22.54 0 40.42 9.08 50.36 25.59 16.24 27 10.3 69.91-16.72 120.9-7.15 13.52-8.31 25.75-3.44 36.36l.08.17c2.15 4.72 4.83 10.58 15.55 16.72 11.13 6.36 29.58 12.45 58.06 19.15 10.07 2.32 16.54 5 20.64 8.75a172.46 172.46 0 0 1-249.07 0z" class="cls-2"/></symbol><symbol id="twitter" viewBox="0 0 400 400"><defs><style>.cls-1{fill:#010101}</style></defs><path d="M316.67 0H83.33A83.35 83.35 0 0 0 0 83.29v233.33A83.34 83.34 0 0 0 83.33 400h233.34A83.33 83.33 0 0 0 400 316.62V83.29A83.33 83.33 0 0 0 316.67 0zm-2.32 154c3.48 76.95-53.9 162.75-155.5 162.75A154.82 154.82 0 0 1 75 292.07a110 110 0 0 0 81-22.65 54.76 54.76 0 0 1-51.1-38 55.1 55.1 0 0 0 24.7-.93c-26.31-5.29-44.46-29-43.88-54.34a54.42 54.42 0 0 0 24.75 6.85 54.82 54.82 0 0 1-16.94-73 155.34 155.34 0 0 0 112.77 57.12 54.74 54.74 0 0 1 93.23-49.88A109.6 109.6 0 0 0 334.3 104a55 55 0 0 1-24.05 30.27 109.85 109.85 0 0 0 31.42-8.62 110.94 110.94 0 0 1-27.32 28.25z" class="cls-1"/></symbol><symbol id="close" viewBox="0 0 400 400"><defs><style>.cls-1{fill:#010101}</style></defs><path d="M400 336.42L261.42 199.6l136.66-138L336.47 0 199.6 138.59 61.1 1.87 0 63l138.68 137.3L1.92 338.85 63 400l137.3-138.68L338.38 398z" class="cls-1"/></symbol><symbol id="cart-full" viewBox="0 0 400 400"><defs><style>.cls-1{fill:#010101}</style></defs><circle cx="151.15" cy="332.62" r="24.08" class="cls-1"/><circle cx="231.42" cy="332.62" r="24.08" class="cls-1"/><path d="M332.65 67.71l-55.1 192.66H110.13l-16.35-39A88.27 88.27 0 0 0 174 148h101.54l9.06-32.11h-111a87.45 87.45 0 0 1 1.59 14 88.23 88.23 0 1 0-118.3 86.48l31.93 76.1h212.51L357.1 99.82h31L400 67.71zM175.23 133v-.44c-.01.17 0 .31 0 .44zM54.39 173.42l10.84-10.54c26.1-24.82 37.88-38 38-53.44 0-10.37-5-20-20.27-20-9.28 0-17 4.71-21.7 8.64l-4.4-9.74A44.82 44.82 0 0 1 85.82 78c22 0 31.28 15.09 31.28 29.7 0 18.87-13.68 34.11-35.21 54.85l-8.17 7.55v.31h45.89v11.49H54.39z" class="cls-1"/></symbol></svg>