<svg id="logo" xmlns="http://www.w3.org/2000/svg" width="256.4" height="49" viewBox="0 0 256.4 49"><title>logo</title><path d="M0,28.4A15.5,15.5,0,0,1,14.5,12.9c6-.2,8.5,5.4,6.5,9s-5.1,3.4-7.1,2.7v-.4c3.5-1.3,4-8.7-1.1-8.2S6,20.3,6,26.1s2.7,9.2,7.2,9.2a9.2,9.2,0,0,0,5.7-1.8l.5.6c-2.6,2.5-5.6,4.5-9.6,4.5C4,38.6,0,34.8,0,28.4Z" fill="#231f20"/><path d="M23.2,28.1c0-8.6,6.1-15,14-15,6.3,0,10.5,3.8,10.5,10.5,0,8.7-6,15-13.9,15C27.5,38.6,23.2,34.8,23.2,28.1ZM41.6,22c0-4.9-1.9-7.6-4.9-7.6s-7.3,7.4-7.4,15.3c0,4.9,1.9,7.6,4.9,7.6S41.6,29.9,41.6,22Z" fill="#231f20"/><path d="M79.8,32.9l2.6-12a12.1,12.1,0,0,0,.3-2.5c0-.9-.4-1.6-1.4-1.6s-6.4,5.4-8.3,8.7L70.5,38H64.9l3.3-17.1a14.1,14.1,0,0,0,.4-2.5c0-.9-.4-1.6-1.4-1.6s-6.8,5.7-8.4,8.8L56.4,38H50.7l3.5-18.1c.5-2.5.5-3.6-1.7-4L51,15.6V15l9.6-1.7.3.6-1.9,9.7c2.6-4.4,6.3-10.3,10.6-10.3,2.6,0,4.5,1.3,4.5,4.7a26.8,26.8,0,0,1-.8,5.5c2.9-5.1,6.2-10.2,10.3-10.2S88.4,15,88.4,18a13,13,0,0,1-.3,2.6L85.6,32.4c-.1.8-.2,1.4-.2,1.8s.3,1.4,1.1,1.4a6.7,6.7,0,0,0,4-2l.5.6c-2.7,2.8-5.2,4.3-7.5,4.3S79,36.9,79.8,32.9Z" fill="#231f20"/><path d="M86.7,48.2l1.9-.2c2.1-.2,2.5-.8,3.3-5.2L96,19.7c.4-2.4.2-3.4-1.8-3.8l-1.5-.3V15l9.5-1.7.4.6-1.5,7.3c2.2-3.6,5.6-7.9,9.5-7.9s6.8,3.7,6.8,8.9c0,9.6-6.9,16.1-13.8,16.1a14.4,14.4,0,0,1-5.2-1.1l-1,5.6c-.7,4.2-.4,4.9,1.8,5.1l2.3.3-.2.8H86.6Zm25-25.4c0-4.3-1.3-6.1-3.3-6.1s-5.7,3.2-7.4,6.3l-.8,4.4a20,20,0,0,0-.4,4c0,3.4,1.1,5.5,4.6,5.5S111.7,30.5,111.7,22.8Z" fill="#231f20"/><path d="M133.7,35.5a9.4,9.4,0,0,0,6-2l.6.6a14.1,14.1,0,0,1-10.1,4.6c-5.9,0-10-3.6-10-10.3s6.7-15.2,14-15.2c5.7,0,8.2,2.5,8.2,5.8,0,4.9-5.8,7.3-16.3,7.9C126.2,32.8,129.5,35.5,133.7,35.5Zm2.5-16.7c.1-2.5-.9-4.2-3-4.2s-6.8,5.2-7.1,11.3C134.1,24.9,136.1,22.5,136.2,18.8Z" fill="#231f20"/><path d="M159.7,32.9l2.6-12c.1-.8.3-1.8.3-2.4s-.4-1.7-1.4-1.7-7.1,5.7-8.7,8.8L150.1,38h-5.7l3.5-18.1c.5-2.3.7-3.6-1.7-4l-1.5-.3V15l9.5-1.7.4.6-1.9,9.7c2.6-4.4,6.3-10.3,10.7-10.3s4.8,1.6,4.8,4.7a13,13,0,0,1-.3,2.6l-2.5,11.8c-.5,2.5-.2,3.2,1,3.2a6.8,6.8,0,0,0,3.9-2l.5.6c-2.7,2.8-5.2,4.3-7.5,4.3S158.9,36.9,159.7,32.9Z" fill="#231f20"/><path d="M172.2,29.6c0-9.5,6.9-16,13.9-16a12.1,12.1,0,0,1,5.1,1.1l1.4-8.2c.4-2.5.3-3.4-1.8-3.9l-1.4-.4.2-.6L199,0l.3.6-5.6,31.8a7.6,7.6,0,0,0-.2,1.9c0,1.2.4,1.3,1.1,1.3s2.3-.6,4-2l.5.6c-2.8,2.8-5.2,4.3-7.5,4.3s-4.4-1.9-3.6-5.9l.5-1.9c-2.2,3.6-5.6,7.9-9.5,7.9S172.2,34.9,172.2,29.6Zm16.5-.7.8-4.4a22.7,22.7,0,0,0,.5-4.1c0-3.3-1.3-5.4-4.6-5.4s-7.3,6.7-7.3,13.9c0,4.5,1.2,6.3,3.2,6.3S187,32,188.7,28.9Z" fill="#231f20"/><path d="M202.5,33.4,205,19.9c.5-2.3.4-3.5-1.8-4l-1.4-.3.2-.6,9.5-1.7.4.6-3.6,18.5c-.1.8-.2,1.5-.2,1.9s.4,1.3,1.1,1.3,2.4-.6,4.1-2l.5.7c-2.5,2.5-5.2,4.2-7.5,4.2S201.8,36.8,202.5,33.4Zm3.8-27.6a3.5,3.5,0,0,1,3.6-3.4,3.4,3.4,0,0,1,3.6,3.4,3.3,3.3,0,0,1-3.6,3.3A3.4,3.4,0,0,1,206.3,5.8Z" fill="#231f20"/><path d="M215.5,29.6c0-9.5,7.2-16,13.9-16a15.5,15.5,0,0,1,6.7,1.7l3.3-2.1h.9l-3.6,19.2a17.6,17.6,0,0,0-.2,1.9c0,1,.3,1.3,1.2,1.3s2.3-.6,4-2l.4.6c-2.7,2.8-5.1,4.3-7.4,4.3s-4.4-1.9-3.6-5.9l.4-1.9c-2.1,3.6-5.4,7.9-9.4,7.9S215.5,34.9,215.5,29.6Zm16.3-.7.8-4.4a26.9,26.9,0,0,0,.5-4.4c0-3.3-1.2-5.1-4.4-5.1s-7.3,6.8-7.3,14c0,4.4,1.2,6.2,2.9,6.2S230,32,231.8,28.9Z" fill="#231f20"/><path d="M244.9,33.4l4.8-27.1c.5-2.5,0-3.3-1.9-3.7l-1.4-.4.2-.6L256.1,0l.3.6-5.8,32.2c-.4,2.1-.1,2.8,1,2.8s2.2-.5,4-2l.6.6c-2.7,2.7-5.3,4.3-7.6,4.3S244.3,36.5,244.9,33.4Z" fill="#231f20"/></svg>